<?xml version="1.0" encoding="utf-8"?>
<!-- Generator: Adobe Illustrator 16.0.0, SVG Export Plug-In . SVG Version: 6.00 Build 0)  -->
<!DOCTYPE svg PUBLIC "-//W3C//DTD SVG 1.1//EN" "http://www.w3.org/Graphics/SVG/1.1/DTD/svg11.dtd">
<svg version="1.1" id="Layer_1" xmlns="http://www.w3.org/2000/svg" xmlns:xlink="http://www.w3.org/1999/xlink" x="0px" y="0px"
	 width="48px" height="48px" viewBox="0 0 48 48" enable-background="new 0 0 48 48" xml:space="preserve">
<rect fill="none" width="48" height="48"/>
<text transform="matrix(1 0 0 1 13.1611 28.666)" fill="#FFFFFF" font-family="'Lato-Regular'" font-size="12">&lt;/&gt;</text>
<rect fill="none" width="48" height="48"/>
<g>
	<circle fill="#016D8D" cx="26.135" cy="27.69" r="1.486"/>
	<circle fill="#016D8D" cx="21.029" cy="22.911" r="1.287"/>
	<path fill="#016D8D" d="M36.236,24.788c-0.205-3.521-3.117-6.314-6.689-6.314c-1.344,0-2.593,0.399-3.643,1.081
		c-1.262-2.754-4.037-4.672-7.266-4.672c-4.416,0-7.996,3.58-7.996,7.996c0,0.722,0.104,1.418,0.284,2.083
		C9.224,25.58,8,27.277,8,29.281c0,2.526,1.944,4.574,4.342,4.574h23.095c2.397,0,4.342-2.048,4.342-4.574
		C39.779,27.043,38.252,25.184,36.236,24.788z M21.489,25.561c-0.302,0.053-0.604,0.052-0.898,0.003l-0.389,0.704l-0.938-0.384
		l0.217-0.774c-0.244-0.171-0.46-0.383-0.638-0.632L18.071,24.7l-0.392-0.935l0.7-0.395c-0.053-0.301-0.052-0.604-0.003-0.897
		l-0.704-0.389l0.384-0.938l0.775,0.217c0.17-0.243,0.382-0.459,0.631-0.638l-0.223-0.772l0.935-0.392l0.394,0.7
		c0.302-0.053,0.604-0.052,0.897-0.003l0.389-0.705l0.938,0.384l-0.217,0.775c0.243,0.171,0.46,0.383,0.638,0.632l0.773-0.223
		l0.391,0.935l-0.699,0.394c0.052,0.301,0.051,0.604,0.002,0.897l0.705,0.389l-0.385,0.938l-0.773-0.217
		c-0.172,0.243-0.383,0.459-0.632,0.638l0.223,0.772l-0.935,0.392L21.489,25.561z M29.462,29.896l-0.783,0.87l-0.757-0.537
		c-0.28,0.197-0.595,0.352-0.936,0.447l-0.058,0.926l-1.169,0.063l-0.155-0.914c-0.349-0.061-0.678-0.18-0.978-0.347l-0.696,0.614
		l-0.871-0.783l0.537-0.757c-0.197-0.28-0.35-0.595-0.447-0.935l-0.925-0.059l-0.062-1.168l0.914-0.156
		c0.061-0.348,0.179-0.678,0.347-0.977l-0.614-0.697l0.782-0.87l0.758,0.537c0.279-0.197,0.594-0.351,0.934-0.447l0.059-0.926
		l1.169-0.062l0.156,0.914c0.349,0.061,0.677,0.18,0.977,0.346l0.696-0.613l0.871,0.781l-0.537,0.758
		c0.197,0.281,0.35,0.595,0.447,0.936l0.926,0.058l0.062,1.169l-0.914,0.155c-0.06,0.349-0.179,0.678-0.347,0.978L29.462,29.896z"/>
</g>
</svg>
