<?xml version="1.0" encoding="utf-8"?>
<!-- Generator: Adobe Illustrator 16.0.0, SVG Export Plug-In . SVG Version: 6.00 Build 0)  -->
<!DOCTYPE svg PUBLIC "-//W3C//DTD SVG 1.1//EN" "http://www.w3.org/Graphics/SVG/1.1/DTD/svg11.dtd">
<svg version="1.1" id="Layer_1" xmlns="http://www.w3.org/2000/svg" xmlns:xlink="http://www.w3.org/1999/xlink" x="0px" y="0px"
	 width="48px" height="48px" viewBox="0 0 48 48" enable-background="new 0 0 48 48" xml:space="preserve">
<rect fill="none" width="48" height="48"/>
<path fill="#016D8D" d="M13.535,25.444c1.48,0,2.685-1.59,2.685-3.543c0-1.955-1.204-3.124-2.685-3.124
	c-1.479,0-2.685,1.169-2.685,3.124C10.85,23.854,12.056,25.444,13.535,25.444"/>
<path fill="#016D8D" d="M34.822,25.444c1.48,0,2.684-1.59,2.684-3.543c0-1.955-1.203-3.124-2.684-3.124
	c-1.479,0-2.685,1.169-2.685,3.124C32.138,23.854,33.343,25.444,34.822,25.444"/>
<path fill="#016D8D" d="M24.119,26.915c1.807,0,3.276-1.94,3.276-4.325c0-2.385-1.47-3.812-3.276-3.812
	c-1.806,0-3.276,1.427-3.276,3.812C20.843,24.975,22.313,26.915,24.119,26.915"/>
<path fill="#016D8D" d="M15.972,33.121v-0.434c0.002-3.707,2.438-5.122,4.559-5.94l0.32-0.123l0.194,0.282
	c0.714,1.046,1.802,1.622,3.064,1.622c1.184,0,2.249-0.595,3-1.674l0.231-0.333l0.347,0.208c0.182,0.108,4.433,2.688,4.435,5.958
	l0.001,0.434H15.972z"/>
<path fill="#016D8D" d="M18.319,26.35c-0.831-0.714-1.548-1.146-1.548-1.146c-0.783,1.126-1.924,1.793-3.236,1.793
	c-1.327,0-2.514-0.597-3.299-1.745c-2.442,0.942-4.126,2.385-4.127,5.338h8.327C15.154,28.418,16.744,27.154,18.319,26.35z"/>
<path fill="#016D8D" d="M33.377,30.59h8.753c-0.002-2.953-4.072-5.386-4.072-5.386c-0.783,1.126-1.924,1.793-3.235,1.793
	c-1.327,0-2.515-0.597-3.299-1.745c-0.772,0.298-1.457,0.655-2.049,1.086C30.568,27.128,32.392,28.653,33.377,30.59z"/>
</svg>
