<?xml version="1.0" encoding="utf-8"?>
<!-- Generator: Adobe Illustrator 16.0.0, SVG Export Plug-In . SVG Version: 6.00 Build 0)  -->
<!DOCTYPE svg PUBLIC "-//W3C//DTD SVG 1.1//EN" "http://www.w3.org/Graphics/SVG/1.1/DTD/svg11.dtd">
<svg version="1.1" id="Layer_1" xmlns="http://www.w3.org/2000/svg" xmlns:xlink="http://www.w3.org/1999/xlink" x="0px" y="0px"
	 width="48px" height="48px" viewBox="0 0 48 48" enable-background="new 0 0 48 48" xml:space="preserve">
<path fill="#0AB243" d="M23.834,12.078c-6.055,0-10.963,4.908-10.963,10.962c0,6.055,4.908,10.963,10.963,10.963
	s10.962-4.908,10.962-10.963C34.796,16.986,29.889,12.078,23.834,12.078z M24.667,28.065c-0.223,0.219-0.492,0.327-0.805,0.327
	c-0.312,0-0.582-0.105-0.81-0.32c-0.229-0.213-0.343-0.471-0.343-0.773c0-0.304,0.112-0.563,0.334-0.782
	c0.224-0.218,0.492-0.327,0.805-0.327c0.313,0,0.583,0.107,0.813,0.32c0.227,0.213,0.341,0.472,0.341,0.773
	C25.002,27.587,24.89,27.848,24.667,28.065z M26.463,21.915c-0.189,0.239-0.334,0.408-0.433,0.507
	c-0.1,0.099-0.231,0.226-0.395,0.379c-0.165,0.154-0.303,0.288-0.418,0.402c-0.114,0.114-0.206,0.211-0.274,0.291
	c-0.179,0.219-0.269,0.526-0.269,0.923v0.67h-1.683v-0.909c0-0.398,0.047-0.692,0.142-0.886c0.095-0.194,0.3-0.45,0.618-0.767
	l1.087-1.087c0.228-0.248,0.343-0.556,0.343-0.923c0-0.367-0.12-0.672-0.357-0.916c-0.239-0.243-0.547-0.365-0.924-0.365
	c-0.376,0-0.691,0.118-0.945,0.351c-0.253,0.234-0.4,0.544-0.44,0.931h-1.802c0.099-0.883,0.445-1.575,1.036-2.077
	c0.591-0.501,1.329-0.752,2.211-0.752c0.884,0,1.604,0.241,2.16,0.722c0.557,0.482,0.834,1.155,0.834,2.018
	C26.953,21.022,26.79,21.52,26.463,21.915z"/>
</svg>
