<?xml version="1.0" encoding="utf-8"?>
<!-- Generator: Adobe Illustrator 16.0.0, SVG Export Plug-In . SVG Version: 6.00 Build 0)  -->
<!DOCTYPE svg PUBLIC "-//W3C//DTD SVG 1.1//EN" "http://www.w3.org/Graphics/SVG/1.1/DTD/svg11.dtd">
<svg version="1.1" id="Layer_1" xmlns="http://www.w3.org/2000/svg" xmlns:xlink="http://www.w3.org/1999/xlink" x="0px" y="0px"
	 width="48px" height="48px" viewBox="0 0 48 48" enable-background="new 0 0 48 48" xml:space="preserve">
<path fill="#0E7698" d="M15.507,33.706h18.471V10.618H15.507V33.706z M17.869,30.243c-0.851,0-1.539-0.689-1.539-1.54
	c0-0.85,0.688-1.539,1.539-1.539s1.54,0.689,1.54,1.539C19.409,29.554,18.72,30.243,17.869,30.243 M17.869,23.316
	c-0.851,0-1.539-0.689-1.539-1.54c0-0.85,0.688-1.538,1.539-1.538s1.54,0.688,1.54,1.538C19.409,22.627,18.72,23.316,17.869,23.316
	 M17.869,16.39c-0.851,0-1.539-0.689-1.539-1.539s0.688-1.539,1.539-1.539s1.54,0.689,1.54,1.539S18.72,16.39,17.869,16.39"/>
<path fill="#0E7698" d="M17.292,15.62h-2.693c-0.317,0-0.577-0.26-0.577-0.577v-0.385c0-0.317,0.26-0.578,0.577-0.578h2.693
	c0.317,0,0.577,0.261,0.577,0.578v0.385C17.869,15.36,17.609,15.62,17.292,15.62"/>
<path fill="#0E7698" d="M17.292,22.547h-2.693c-0.317,0-0.577-0.26-0.577-0.578v-0.384c0-0.318,0.26-0.578,0.577-0.578h2.693
	c0.317,0,0.577,0.26,0.577,0.578v0.384C17.869,22.287,17.609,22.547,17.292,22.547"/>
<path fill="#0E7698" d="M17.292,29.474h-2.693c-0.317,0-0.577-0.26-0.577-0.577v-0.386c0-0.317,0.26-0.577,0.577-0.577h2.693
	c0.317,0,0.577,0.26,0.577,0.577v0.386C17.869,29.214,17.609,29.474,17.292,29.474"/>
</svg>
