<?xml version="1.0" encoding="utf-8"?>
<!-- Generator: Adobe Illustrator 16.0.0, SVG Export Plug-In . SVG Version: 6.00 Build 0)  -->
<!DOCTYPE svg PUBLIC "-//W3C//DTD SVG 1.1//EN" "http://www.w3.org/Graphics/SVG/1.1/DTD/svg11.dtd">
<svg version="1.1" id="Layer_1" xmlns="http://www.w3.org/2000/svg" xmlns:xlink="http://www.w3.org/1999/xlink" x="0px" y="0px"
	 width="48px" height="48px" viewBox="0 0 48 48" enable-background="new 0 0 48 48" xml:space="preserve">
<path fill="#0AB243" d="M29.38,20.182v-4.826c0-2.654-2.149-4.805-4.804-4.805h-1.484c-2.654,0-4.805,2.151-4.805,4.805v4.826
	c-1.319,0.524-2.254,1.807-2.254,3.313v8.469c0,1.97,1.597,3.566,3.566,3.566h8.468c1.969,0,3.566-1.597,3.566-3.566v-8.469
	C31.634,21.991,30.699,20.706,29.38,20.182z M25.506,31.418h-3.343l1.203-4.108c-0.693-0.203-1.203-0.837-1.203-1.598
	c0-0.923,0.748-1.671,1.671-1.671c0.923,0,1.672,0.748,1.672,1.671c0,0.761-0.51,1.395-1.205,1.598L25.506,31.418z M27.711,19.929
	h-7.756V16.94c0-2.285,0.444-4.138,2.3-4.138h3.344c1.854,0,2.112,1.853,2.112,4.138V19.929z"/>
</svg>
