<?xml version="1.0" encoding="utf-8"?>
<!-- Generator: Adobe Illustrator 16.0.0, SVG Export Plug-In . SVG Version: 6.00 Build 0)  -->
<!DOCTYPE svg PUBLIC "-//W3C//DTD SVG 1.1//EN" "http://www.w3.org/Graphics/SVG/1.1/DTD/svg11.dtd">
<svg version="1.1" id="Layer_1" xmlns="http://www.w3.org/2000/svg" xmlns:xlink="http://www.w3.org/1999/xlink" x="0px" y="0px"
	 width="48px" height="48px" viewBox="0 0 48 48" enable-background="new 0 0 48 48" xml:space="preserve">
<rect fill="none" width="48" height="48"/>
<path fill="#0AB243" d="M17.716,33.828h-1.719v-1.727l0.008-13.816c0-0.413-0.008-2.897-0.008-2.897h-1.021
	c0,0,0.009,1.481,0.009,1.946L14.976,32.9v1.946h1.936h11.685h1.946v-1.019h-2.456H17.716z"/>
<path fill="#0AB243" d="M27.188,13.153h-7.784h-1.946c0,0,0.01,1.48,0.01,1.946l-0.01,15.567v1.945h1.937h11.685h1.945v-1.945
	V18.991L27.188,13.153z M29.133,27.777H21.35v-1.003h7.783V27.777z M29.133,24.737H21.35v-0.912h7.783V24.737z M29.163,21.924
	h-7.844v-1.003h7.844V21.924z"/>
</svg>
